<svg viewBox="0 0 62 57 " fill="none" xmlns="http://www.w3.org/2000/svg" class="w-6 text-blue-500">
    <path
        d="M52 0C57.5228 8.37535e-07 62 4.47715 62 10V47C62 52.5228 57.5228 57 52 57H10C4.47715 57 4.02673e-08 52.5228 0 47V10C0 4.47715 4.47715 0 10 0H52ZM10.75 13.3721V20.5479H6V25.3115H10.75V44.4033H15.5225V25.3096H22.6602V20.5459H15.5225V15.7627H25.0469V11H13.1357L10.75 13.3721ZM34.5605 22.918V42.0322L36.9248 44.4033H51.2207L53.6074 42.0322V22.918L51.2207 20.5459H36.9248L34.5605 22.918ZM48.835 39.6416H39.3105V25.3115H48.835V39.6416Z"
        fill="#2B80FF"></path>
</svg>